<mxfile host="Electron" agent="Mozilla/5.0 (Windows NT 10.0; Win64; x64) AppleWebKit/537.36 (KHTML, like Gecko) draw.io/26.2.2 Chrome/134.0.6998.178 Electron/35.1.2 Safari/537.36" version="26.2.2">
  <diagram name="Page-1" id="1U1I144F1UWDsiIZxiWH">
    <mxGraphModel dx="217" dy="-495" grid="1" gridSize="10" guides="1" tooltips="1" connect="1" arrows="1" fold="1" page="1" pageScale="1" pageWidth="827" pageHeight="1169" math="0" shadow="0">
      <root>
        <mxCell id="0" />
        <mxCell id="1" parent="0" />
        <mxCell id="TrpQZzMjOhmm-rsvOaSg-1" value="" style="edgeStyle=orthogonalEdgeStyle;rounded=0;orthogonalLoop=1;jettySize=auto;html=1;" parent="1" source="TrpQZzMjOhmm-rsvOaSg-2" edge="1">
          <mxGeometry relative="1" as="geometry">
            <mxPoint x="1240.5" y="1490" as="targetPoint" />
          </mxGeometry>
        </mxCell>
        <mxCell id="TrpQZzMjOhmm-rsvOaSg-2" value="Enter student information" style="shape=parallelogram;perimeter=parallelogramPerimeter;whiteSpace=wrap;html=1;fixedSize=1;" parent="1" vertex="1">
          <mxGeometry x="1128" y="1340" width="225" height="70" as="geometry" />
        </mxCell>
        <mxCell id="TrpQZzMjOhmm-rsvOaSg-3" style="edgeStyle=orthogonalEdgeStyle;rounded=0;orthogonalLoop=1;jettySize=auto;html=1;entryX=0.5;entryY=0;entryDx=0;entryDy=0;" parent="1" source="TrpQZzMjOhmm-rsvOaSg-5" target="TrpQZzMjOhmm-rsvOaSg-7" edge="1">
          <mxGeometry relative="1" as="geometry" />
        </mxCell>
        <mxCell id="TrpQZzMjOhmm-rsvOaSg-4" value="Yes" style="edgeLabel;html=1;align=center;verticalAlign=middle;resizable=0;points=[];" parent="TrpQZzMjOhmm-rsvOaSg-3" vertex="1" connectable="0">
          <mxGeometry x="-0.084" y="1" relative="1" as="geometry">
            <mxPoint as="offset" />
          </mxGeometry>
        </mxCell>
        <mxCell id="TrpQZzMjOhmm-rsvOaSg-5" value="Valid ?" style="rhombus;whiteSpace=wrap;html=1;" parent="1" vertex="1">
          <mxGeometry x="1200.5" y="1490" width="80" height="80" as="geometry" />
        </mxCell>
        <mxCell id="bzUVMJcOD9G8k8WNYG1U-1" style="edgeStyle=orthogonalEdgeStyle;rounded=0;orthogonalLoop=1;jettySize=auto;html=1;entryX=0.5;entryY=1;entryDx=0;entryDy=0;" parent="1" source="TrpQZzMjOhmm-rsvOaSg-7" target="TrpQZzMjOhmm-rsvOaSg-16" edge="1">
          <mxGeometry relative="1" as="geometry" />
        </mxCell>
        <mxCell id="TrpQZzMjOhmm-rsvOaSg-7" value="Display &quot;Created Account&quot;" style="whiteSpace=wrap;html=1;shape=parallelogram;perimeter=parallelogramPerimeter;fixedSize=1;" parent="1" vertex="1">
          <mxGeometry x="1180.5" y="1690" width="120" height="60" as="geometry" />
        </mxCell>
        <mxCell id="TrpQZzMjOhmm-rsvOaSg-8" style="edgeStyle=orthogonalEdgeStyle;rounded=0;orthogonalLoop=1;jettySize=auto;html=1;exitX=1;exitY=0.5;exitDx=0;exitDy=0;" parent="1" source="TrpQZzMjOhmm-rsvOaSg-5" edge="1">
          <mxGeometry relative="1" as="geometry">
            <mxPoint x="1177.95" y="1790" as="sourcePoint" />
            <mxPoint x="1241" y="1300" as="targetPoint" />
            <Array as="points">
              <mxPoint x="1453" y="1530" />
              <mxPoint x="1453" y="1300" />
            </Array>
          </mxGeometry>
        </mxCell>
        <mxCell id="TrpQZzMjOhmm-rsvOaSg-9" value="No" style="edgeLabel;html=1;align=center;verticalAlign=middle;resizable=0;points=[];" parent="TrpQZzMjOhmm-rsvOaSg-8" vertex="1" connectable="0">
          <mxGeometry x="-0.7755" y="-3" relative="1" as="geometry">
            <mxPoint as="offset" />
          </mxGeometry>
        </mxCell>
        <mxCell id="TrpQZzMjOhmm-rsvOaSg-12" value="&lt;font style=&quot;font-size: 1px;&quot;&gt;.&lt;/font&gt;" style="text;html=1;align=center;verticalAlign=middle;resizable=0;points=[];autosize=1;strokeColor=none;fillColor=none;" parent="1" vertex="1">
          <mxGeometry x="1180" y="1550" width="20" height="30" as="geometry" />
        </mxCell>
        <mxCell id="TrpQZzMjOhmm-rsvOaSg-13" value="&lt;font style=&quot;color: rgb(119, 119, 119); font-size: 16px;&quot;&gt;Figure 8.2 Student Registration Flowchart&lt;/font&gt;" style="text;strokeColor=none;align=center;fillColor=none;html=1;verticalAlign=middle;whiteSpace=wrap;rounded=0;" parent="1" vertex="1">
          <mxGeometry x="994" y="1890" width="493" height="30" as="geometry" />
        </mxCell>
        <mxCell id="TrpQZzMjOhmm-rsvOaSg-14" value="" style="edgeStyle=orthogonalEdgeStyle;rounded=0;orthogonalLoop=1;jettySize=auto;html=1;" parent="1" source="TrpQZzMjOhmm-rsvOaSg-15" target="TrpQZzMjOhmm-rsvOaSg-2" edge="1">
          <mxGeometry relative="1" as="geometry" />
        </mxCell>
        <mxCell id="TrpQZzMjOhmm-rsvOaSg-15" value="start" style="ellipse;whiteSpace=wrap;html=1;direction=west;" parent="1" vertex="1">
          <mxGeometry x="1195.5" y="1210" width="90" height="60" as="geometry" />
        </mxCell>
        <mxCell id="TrpQZzMjOhmm-rsvOaSg-16" value="end" style="ellipse;whiteSpace=wrap;html=1;direction=west;" parent="1" vertex="1">
          <mxGeometry x="1196" y="1800" width="90" height="60" as="geometry" />
        </mxCell>
      </root>
    </mxGraphModel>
  </diagram>
</mxfile>
